Format                           : AVI
Format/Info                      : Audio Video Interleave
File size                        : 690 MiB
Duration                         : 1h 27mn
Overall bit rate                 : 1 098 Kbps
Writing application              : Nandub v1.0rc2
Writing library                  : Nandub build 1853/release

Video
ID                               : 0
Format                           : MPEG-4 Visual
Codec ID                         : DIV3
Codec ID/Hint                    : DivX 3 Low
Duration                         : 1h 27mn
Bit rate                         : 954 Kbps
Width                            : 640 pixels
Height                           : 352 pixels
Display aspect ratio             : 16:9
Frame rate                       : 23.976 fps
Color space                      : YUV
Chroma subsampling               : 4:2:0
Bit depth                        : 8 bits
Bits/(Pixel*Frame)               : 0.177
Stream size                      : 600 MiB (87%)

Audio
ID                               : 1
Format                           : MPEG Audio
Format version                   : Version 1
Format profile                   : Layer 3
Mode                             : Joint stereo
Mode extension                   : MS Stereo
Codec ID                         : 55
Codec ID/Hint                    : MP3
Duration                         : 1h 27mn
Bit rate mode                    : Variable
Bit rate                         : 131 Kbps
Minimum bit rate                 : 128 Kbps
Channel(s)                       : 2 channels
Sampling rate                    : 48.0 KHz
Stream size                      : 82.5 MiB (12%)
Alignment                        : Aligned on interleaves
Interleave, duration             : 24 ms (0.58 video frame)
Interleave, preload duration     : 468 ms
Writing library                  : LAME3.91 
Encoding settings                : -m j -V 4 -q 2 -lowpass 15 --vbr-old -b 128



_+++++++++_+______________++++++++++++_screenshots_++++++++++++++++_________+++

                      http://bayimg.com/haNgEAacl

_+++++++++_+______________++++++++++++_screenshots_++++++++++++++++_________+++

